<?xml version="1.0" encoding="UTF-8"?>
<svg width="512pt" height="512pt" version="1.1" viewBox="0 0 512 512" xmlns="http://www.w3.org/2000/svg">
 <g fill="#fff">
  <path d="m127.74 371-7.832-138.55h-36.914l-7.8359 138.55z"/>
  <path d="m83.457 224.77h44.746v-23.246h-53.449v23.246z"/>
  <path d="m228.81 371-7.832-138.55h-36.918l-7.832 138.55z"/>
  <path d="m175.77 224.77h53.453v-23.246h-53.453z"/>
  <path d="m335.77 371-7.832-138.55h-36.918l-7.832 138.55z"/>
  <path d="m386.56 232.45-7.832 138.55h52.582l-7.832-138.55z"/>
  <path d="m282.78 224.77h53.453v-23.246h-53.453z"/>
  <path d="m431.72 224.77v-23.246h-53.453v23.246z"/>
  <path d="m74.754 193.84h386.05v-32.562h-409.6v32.562z"/>
  <path d="m65.742 401.92h71.422v-23.246h-71.422z"/>
  <path d="m486.4 153.6-230.4-128-230.4 128zm-233.88-90.062c17.102 0 30.977 13.926 30.977 30.977s-13.926 30.977-30.977 30.977-30.977-13.926-30.977-30.977 13.926-30.977 30.977-30.977z"/>
  <path d="m238.23 378.68h-71.477v23.246h71.477z"/>
  <path d="m345.24 378.68h-71.477v23.246h71.477z"/>
  <path d="m431.72 378.68h-62.465v23.246h71.477v-23.246z"/>
  <path d="m252.52 117.86c12.852 0 23.297-10.445 23.297-23.297 0-12.852-10.445-23.297-23.297-23.297-12.852 0-23.297 10.445-23.297 23.297 0 12.852 10.445 23.297 23.297 23.297z"/>
  <path d="m51.199 409.6v30.719h409.6v-30.719z"/>
  <path d="m486.4 448h-460.8v38.398h460.8z"/>
 </g>
</svg>
